<svg width="21" height="15" viewBox="0 0 21 15" fill="none" xmlns="http://www.w3.org/2000/svg">
<g clip-path="url(#clip0_1_596)">
<mask id="mask0_1_596" style="mask-type:alpha" maskUnits="userSpaceOnUse" x="0" y="0" width="21" height="15">
<path d="M19 0H2C0.89543 0 0 0.89543 0 2V13C0 14.1046 0.89543 15 2 15H19C20.1046 15 21 14.1046 21 13V2C21 0.89543 20.1046 0 19 0Z" fill="#22438B"/>
</mask>
<g mask="url(#mask0_1_596)">
<path d="M20.619 -2H0.380952C-0.934011 -2 -2 -0.865788 -2 0.533333V14.4667C-2 15.8658 -0.934011 17 0.380952 17H20.619C21.934 17 23 15.8658 23 14.4667V0.533333C23 -0.865788 21.934 -2 20.619 -2Z" fill="#22438B"/>
<path fill-rule="evenodd" clip-rule="evenodd" d="M2.27587 0H0.0131249L0 2.30273L18.7958 15L21.0419 14.9574L21 12.6984L2.27587 0Z" fill="white"/>
<path fill-rule="evenodd" clip-rule="evenodd" d="M1.10526 0L0 1.15385L19.8947 15L21 13.8462L1.10526 0Z" fill="#C7152A"/>
<path fill-rule="evenodd" clip-rule="evenodd" d="M18.8051 0L21 0.0234108V2.32255C21 2.32255 8.10478 10.8248 2.36284 15C2.2937 15.0506 0 15.0034 0 15.0034V12.8181L18.8051 0Z" fill="white"/>
<path fill-rule="evenodd" clip-rule="evenodd" d="M19.9423 0L21 1.1836L1.10526 15L0 13.8486L19.9423 0Z" fill="#C7152A"/>
<path fill-rule="evenodd" clip-rule="evenodd" d="M7.73684 0H13.2632V4.61538H21V10.3846H13.2632V15H7.73684V10.3846H0V4.61538H7.73684V0Z" fill="white"/>
<path fill-rule="evenodd" clip-rule="evenodd" d="M8.8421 0H12.1579V5.76923H21V9.23077H12.1579V15H8.8421V9.23077H0V5.76923H8.8421V0Z" fill="#C7152A"/>
</g>
</g>
<defs>
<clipPath id="clip0_1_596">
<rect width="21" height="15" fill="white"/>
</clipPath>
</defs>
</svg>
