<svg width="24" height="24" viewBox="0 0 24 24" fill="none" xmlns="http://www.w3.org/2000/svg">
<path d="M8 3.5V4H9V3.5H8ZM9 1.5V1H8V1.5H9ZM16 20.5V20H15V20.5H16ZM15 22.5V23H16V22.5H15ZM3.5 9H4V8H3.5V9ZM1.5 8H1V9H1.5V8ZM20.5 15H20V16H20.5V15ZM22.5 16H23V15H22.5V16ZM4.64645 5.35355L5 5.70711L5.70711 5L5.35355 4.64645L4.64645 5.35355ZM3.35355 2.64645L3 2.29289L2.29289 3L2.64645 3.35355L3.35355 2.64645ZM19.3536 18.6464L19 18.2929L18.2929 19L18.6464 19.3536L19.3536 18.6464ZM20.6464 21.3536L21 21.7071L21.7071 21L21.3536 20.6464L20.6464 21.3536ZM2.5 14.5L2.14645 14.1464L1.79289 14.5L2.14645 14.8536L2.5 14.5ZM9.5 21.5L9.14645 21.8536L9.5 22.2071L9.85355 21.8536L9.5 21.5ZM21.5 9.5L21.8536 9.85355L22.2071 9.5L21.8536 9.14645L21.5 9.5ZM14.5 2.5L14.8536 2.14645L14.5 1.79289L14.1464 2.14645L14.5 2.5ZM10.1464 6.14645L9.79289 6.5L10.5 7.20711L10.8536 6.85355L10.1464 6.14645ZM6.85355 10.8536L7.20711 10.5L6.5 9.79289L6.14645 10.1464L6.85355 10.8536ZM17.1464 13.1464L16.7929 13.5L17.5 14.2071L17.8536 13.8536L17.1464 13.1464ZM13.8536 17.8536L14.2071 17.5L13.5 16.7929L13.1464 17.1464L13.8536 17.8536ZM9 3.5V1.5H8V3.5H9ZM15 20.5V22.5H16V20.5H15ZM3.5 8H1.5V9H3.5V8ZM20.5 16H22.5V15H20.5V16ZM5.35355 4.64645L3.35355 2.64645L2.64645 3.35355L4.64645 5.35355L5.35355 4.64645ZM18.6464 19.3536L20.6464 21.3536L21.3536 20.6464L19.3536 18.6464L18.6464 19.3536ZM2.14645 14.8536L9.14645 21.8536L9.85355 21.1464L2.85355 14.1464L2.14645 14.8536ZM21.8536 9.14645L14.8536 2.14645L14.1464 2.85355L21.1464 9.85355L21.8536 9.14645ZM14.1464 2.14645L10.1464 6.14645L10.8536 6.85355L14.8536 2.85355L14.1464 2.14645ZM6.14645 10.1464L2.14645 14.1464L2.85355 14.8536L6.85355 10.8536L6.14645 10.1464ZM17.8536 13.8536L21.8536 9.85355L21.1464 9.14645L17.1464 13.1464L17.8536 13.8536ZM9.85355 21.8536L13.8536 17.8536L13.1464 17.1464L9.14645 21.1464L9.85355 21.8536Z" fill="#121213"/>
</svg>
