<svg width="24" height="24" viewBox="0 0 24 24" fill="none" xmlns="http://www.w3.org/2000/svg">
<path d="M21.5 4.5H22V4H21.5V4.5ZM21.5 19.5V20H22V19.5H21.5ZM2.5 19.5H2V20H2.5V19.5ZM2.5 4.5V4H2V4.5H2.5ZM12 12.0714L11.7737 12.5173L12 12.6321L12.2263 12.5173L12 12.0714ZM21 4.5V19.5H22V4.5H21ZM21.5 19H2.5V20H21.5V19ZM3 19.5V4.5H2V19.5H3ZM2.5 5H21.5V4H2.5V5ZM21.2737 6.80414L11.7737 11.6256L12.2263 12.5173L21.7263 7.69587L21.2737 6.80414ZM12.2263 11.6256L2.72629 6.80414L2.27371 7.69587L11.7737 12.5173L12.2263 11.6256Z" fill="#121213"/>
</svg>
