<svg width="24" height="24" viewBox="0 0 24 24" fill="none" xmlns="http://www.w3.org/2000/svg">
<path d="M4.5 9.5V9H4V9.5H4.5ZM19.5 9.5H20V9H19.5V9.5ZM19.5 21.5V22H20V21.5H19.5ZM4.5 21.5H4V22H4.5V21.5ZM15 9.5C15 9.77614 15.2239 10 15.5 10C15.7761 10 16 9.77614 16 9.5H15ZM8 9.5C8 9.77614 8.22386 10 8.5 10C8.77614 10 9 9.77614 9 9.5H8ZM12.5 14V13.5H11.5V14H12.5ZM11.5 17V17.5H12.5V17H11.5ZM4.5 10H19.5V9H4.5V10ZM19 9.5V21.5H20V9.5H19ZM19.5 21H4.5V22H19.5V21ZM5 21.5V9.5H4V21.5H5ZM15 6V9.5H16V6H15ZM9 9.5V6H8V9.5H9ZM12 3C13.6569 3 15 4.34315 15 6H16C16 3.79086 14.2091 2 12 2V3ZM12 2C9.79086 2 8 3.79086 8 6H9C9 4.34315 10.3431 3 12 3V2ZM11.5 14V17H12.5V14H11.5Z" fill="#121213"/>
</svg>
