<svg width="24" height="24" viewBox="0 0 24 24" fill="none" xmlns="http://www.w3.org/2000/svg">
<path d="M3.99989 20.5L3.5018 20.4563L3.4541 21H3.99989V20.5ZM12.4999 21H12.9999V20H12.4999V21ZM15.274 13.7617L15.72 13.9876L16.1719 13.0955L15.7258 12.8696L15.274 13.7617ZM18.9999 15.5V15H17.9999V15.5H18.9999ZM17.9999 21.5V22H18.9999V21.5H17.9999ZM15.4999 18H14.9999V19H15.4999V18ZM21.4999 19H21.9999V18H21.4999V19ZM15.4999 6.5C15.4999 8.433 13.9329 10 11.9999 10V11C14.4852 11 16.4999 8.98528 16.4999 6.5H15.4999ZM11.9999 10C10.0669 10 8.49989 8.433 8.49989 6.5H7.49989C7.49989 8.98528 9.51461 11 11.9999 11V10ZM8.49989 6.5C8.49989 4.567 10.0669 3 11.9999 3V2C9.51461 2 7.49989 4.01472 7.49989 6.5H8.49989ZM11.9999 3C13.9329 3 15.4999 4.567 15.4999 6.5H16.4999C16.4999 4.01472 14.4852 2 11.9999 2V3ZM4.49798 20.5437C4.87379 16.2605 7.84235 13 11.9999 13V12C7.21832 12 3.91307 15.7691 3.5018 20.4563L4.49798 20.5437ZM3.99989 21H12.4999V20H3.99989V21ZM15.7258 12.8696C14.6213 12.3101 13.3658 12 11.9999 12V13C13.2114 13 14.3118 13.2743 15.274 13.7617L15.7258 12.8696ZM17.9999 15.5V18.5H18.9999V15.5H17.9999ZM17.9999 18.5V21.5H18.9999V18.5H17.9999ZM15.4999 19H18.4999V18H15.4999V19ZM18.4999 19H21.4999V18H18.4999V19Z" fill="#121213"/>
</svg>
