<svg width="24" height="24" viewBox="0 0 24 24" fill="none" xmlns="http://www.w3.org/2000/svg">
<path d="M16.5 7.5L7.5 16.5M21.5 12C21.5 17.2467 17.2467 21.5 12 21.5C6.75329 21.5 2.5 17.2467 2.5 12C2.5 6.75329 6.75329 2.5 12 2.5C17.2467 2.5 21.5 6.75329 21.5 12Z" stroke="#121213" stroke-linejoin="round"/>
<path d="M8.375 9C8.375 9.34518 8.65482 9.625 9 9.625C9.34518 9.625 9.625 9.34518 9.625 9C9.625 8.65482 9.34518 8.375 9 8.375C8.65482 8.375 8.375 8.65482 8.375 9Z" fill="#121213" stroke="#121213"/>
<path d="M14.375 15C14.375 15.3452 14.6548 15.625 15 15.625C15.3452 15.625 15.625 15.3452 15.625 15C15.625 14.6548 15.3452 14.375 15 14.375C14.6548 14.375 14.375 14.6548 14.375 15Z" fill="#121213" stroke="#121213"/>
</svg>
