<svg width="24" height="24" viewBox="0 0 24 24" fill="none" xmlns="http://www.w3.org/2000/svg">
<path d="M5.5 21.5L5.00024 21.5156L5.01538 22H5.5V21.5ZM18.5 21.5V22H18.9846L18.9998 21.5156L18.5 21.5ZM2.5 4.99998H2V5.99998H2.5V4.99998ZM21.5 5.99998H22V4.99998H21.5V5.99998ZM4.50024 5.5156L5.00024 21.5156L5.99976 21.4844L5.49976 5.48436L4.50024 5.5156ZM5.5 22H18.5V21H5.5V22ZM18.9998 21.5156L19.4998 5.5156L18.5002 5.48436L18.0002 21.4844L18.9998 21.5156ZM19 4.99998H5V5.99998H19V4.99998ZM2.5 5.99998H5V4.99998H2.5V5.99998ZM19 5.99998H21.5V4.99998H19V5.99998ZM8.68128 5.38488C9.14706 3.998 10.4577 3 12 3V2C10.0152 2 8.33174 3.28469 7.73331 5.0665L8.68128 5.38488ZM12 3C13.5424 3 14.853 3.998 15.3188 5.38488L16.2667 5.0665C15.6683 3.28469 13.9849 2 12 2V3Z" fill="#121213"/>
</svg>
